<svg width="106" height="51" viewBox="0 0 106 51" fill="none" xmlns="http://www.w3.org/2000/svg">
<g filter="url(#filter0_d_11553_370)">
<path d="M42.5078 32.3872C42.8316 45.342 33.4664 48.8506 28.7433 48.9856L19.432 46.9614L1.61922 30.7679V26.7195L3.6434 24.2905H7.28694L12.145 27.5292V11.7405L12.5498 8.50185L13.7643 6.47766H17.003L19.8369 7.69217V4.45348L20.2417 2.02445L23.0756 1.21478L26.3143 2.02445L27.5288 4.45348L29.553 3.6438H33.1965L34.8159 6.47766V12.9551L35.2207 12.1454L37.2449 11.7405L38.8642 10.9309L40.8884 11.7405L42.1029 12.9551C42.1029 14.0346 42.1839 19.4324 42.5078 32.3872Z" fill="white"/>
<path fill-rule="evenodd" clip-rule="evenodd" d="M18.5877 5.01998C18.5877 2.24753 20.8384 0 23.6147 0C25.8074 0 27.6723 1.40201 28.3593 3.35733C29.1587 2.82216 30.1204 2.50999 31.1551 2.50999C33.9314 2.50999 36.182 4.75751 36.182 7.52997V10.7115C36.9214 10.2844 37.7798 10.04 38.6955 10.04C41.4718 10.04 43.7224 12.2875 43.7224 15.0599L43.7224 35.1399C43.7224 43.4572 36.9705 50.1998 28.6416 50.1998H26.1281C21.5287 50.1998 17.4087 48.1407 14.6463 44.9042C14.577 44.8439 14.5086 44.7822 14.4412 44.7189L1.86136 32.907C-0.404547 30.7794 -0.63326 27.2192 1.34892 24.8224C3.29024 22.475 6.69688 22.0472 9.15452 23.8605L11.0473 25.2571V10.04C11.0473 7.26751 13.298 5.01998 16.0743 5.01998C16.9899 5.01998 17.8483 5.26444 18.5877 5.69156V5.01998ZM21.1012 5.01998C21.1012 3.63375 22.2265 2.50999 23.6147 2.50999C25.0028 2.50999 26.1281 3.63375 26.1281 5.01998V22.5899H28.6416V7.52997C28.6416 7.52832 28.6416 7.52667 28.6416 7.52502C28.6443 6.14107 29.7686 5.01998 31.1551 5.01998C32.5432 5.01998 33.6685 6.14374 33.6685 7.52997V22.5899H36.182V15.0599C36.182 13.6737 37.3073 12.5499 38.6955 12.5499C40.0836 12.5499 41.2089 13.6737 41.2089 15.0599L41.2089 35.1399C41.2089 42.071 35.5823 47.6898 28.6416 47.6898H26.1281C22.224 47.6898 18.7357 45.912 16.4307 43.1229C16.3397 43.0499 16.2504 42.9724 16.163 42.8903L3.58311 31.0784C2.28121 29.856 2.15017 27.7953 3.28692 26.4207C4.38154 25.0972 6.282 24.8619 7.66092 25.8793L13.5608 30.2324V10.04C13.5608 8.65373 14.6861 7.52997 16.0743 7.52997C17.4624 7.52997 18.5877 8.65373 18.5877 10.04V22.5899H21.1012V5.01998Z" fill="black"/>
</g>
<rect x="57.8117" y="18.358" width="48.1884" height="2.29469" fill="black"/>
<rect x="57.8117" y="28.3014" width="28.3011" height="2.29469" fill="black"/>
<rect x="57.8117" y="38.2448" width="43.599" height="2.29469" fill="black"/>
<defs>
<filter id="filter0_d_11553_370" x="0" y="0" width="46.7819" height="53.2593" filterUnits="userSpaceOnUse" color-interpolation-filters="sRGB">
<feFlood flood-opacity="0" result="BackgroundImageFix"/>
<feColorMatrix in="SourceAlpha" type="matrix" values="0 0 0 0 0 0 0 0 0 0 0 0 0 0 0 0 0 0 127 0" result="hardAlpha"/>
<feOffset dx="3.05851" dy="3.05851"/>
<feComposite in2="hardAlpha" operator="out"/>
<feColorMatrix type="matrix" values="0 0 0 0 0 0 0 0 0 0 0 0 0 0 0 0 0 0 0.25 0"/>
<feBlend mode="normal" in2="BackgroundImageFix" result="effect1_dropShadow_11553_370"/>
<feBlend mode="normal" in="SourceGraphic" in2="effect1_dropShadow_11553_370" result="shape"/>
</filter>
</defs>
</svg>
