<svg width="16" height="20" viewBox="0 0 16 20" fill="none" xmlns="http://www.w3.org/2000/svg">
<g clip-path="url(#clip0_11553_385)">
<path fill-rule="evenodd" clip-rule="evenodd" d="M5.49994 4.33278H6.83326V2.49947C6.83326 1.85548 7.35592 1.33282 7.99991 1.33282C8.64391 1.33282 9.16657 1.85548 9.16657 2.49947V4.33278H14.6665V18.666H1.33332V4.33278H5.49994ZM10.4999 2.99947H15.9998V19.9993H0L0 2.99947H5.49994V2.49947C5.49994 1.11815 6.61993 -0.00050204 7.99991 -0.00050204C9.38123 -0.00050204 10.4999 1.11949 10.4999 2.49947V2.99947ZM7.99991 7.66608C6.98659 7.66608 6.1666 8.48741 6.1666 9.4994C6.1666 10.5127 6.98792 11.3327 7.99991 11.3327C9.01324 11.3327 9.83323 10.5114 9.83323 9.4994C9.83323 8.48607 9.0119 7.66608 7.99991 7.66608ZM4.83328 9.4994C4.83328 7.75008 6.2506 6.33276 7.99991 6.33276C9.74923 6.33276 11.1665 7.75008 11.1665 9.4994C11.1665 10.718 10.4786 11.7767 9.46923 12.306C10.7626 12.8714 11.6665 14.1633 11.6665 15.666V15.9993H10.3332V15.666C10.3332 14.378 9.2879 13.3327 7.99991 13.3327C6.71193 13.3327 5.66661 14.378 5.66661 15.666V15.9993H4.33329V15.666C4.33329 14.1633 5.23728 12.8714 6.5306 12.306C5.52127 11.7767 4.83328 10.7194 4.83328 9.4994Z" fill="white"/>
</g>
<defs>
<clipPath id="clip0_11553_385">
<rect width="15.5614" height="19.4517" fill="white" transform="scale(1.02818)"/>
</clipPath>
</defs>
</svg>
